<?xml version="1.0" encoding="utf-8"?>
<!-- Generator: Adobe Illustrator 19.0.0, SVG Export Plug-In . SVG Version: 6.00 Build 0)  -->
<svg version="1.1" xmlns="http://www.w3.org/2000/svg" xmlns:xlink="http://www.w3.org/1999/xlink" x="0px" y="0px"
	 viewBox="0 0 312.8 312.8" style="enable-background:new 0 0 312.8 312.8;" xml:space="preserve">
<style type="text/css">
	.st0{fill-rule:evenodd;clip-rule:evenodd;fill:#376A96;}
	.st1{fill:#67B1E9;}
	.st2{fill:#31597D;}
	.st3{fill:#FFFFFF;}
	.st4{fill:none;stroke:#AFAFAF;stroke-width:7.2;stroke-linecap:round;stroke-linejoin:round;stroke-miterlimit:2.6131;}
</style>
<g id="Layer_1">
	<g>
		
			<rect x="164.3" y="175" transform="matrix(-0.7071 -0.7071 0.7071 -0.7071 189.8447 458.3238)" class="st0" width="51.1" height="29.6"/>
		<path class="st1" d="M30.4,30.4L30.4,30.4C10.1,50.6,0,77.2,0,103.8c0,26.6,10.1,53.1,30.4,73.4h0c20.3,20.3,46.8,30.4,73.4,30.4
			c26.6,0,53.1-10.1,73.4-30.4c20.3-20.3,30.4-46.8,30.4-73.4c0-26.6-10.1-53.1-30.4-73.4C156.9,10.1,130.3,0,103.8,0
			C77.2,0,50.6,10.1,30.4,30.4z"/>
		<polygon class="st2" points="220.8,184.4 184.4,220.8 180.8,224.3 184,227.5 266.2,309.7 269.3,312.8 272.9,309.2 309.2,272.9 
			312.8,269.3 309.7,266.2 227.5,184 224.3,180.8 		"/>
		<path class="st3" d="M45.7,45.7L45.7,45.7c-16,16-24,37-24,58c0,21,8,42,24,58l0,0c16,16,37,24,58,24c21,0,42-8,58-24
			c16-16,24-37,24-58c0-21-8-42-24-58c-16-16-37-24-58-24C82.7,21.7,61.7,29.7,45.7,45.7z"/>
		<path class="st4" d="M63.2,61.9c0,0,46.5-33.1,80.9,5.4"/>
	</g>
</g>
<g id="Master_Layer_7">
</g>
</svg>
